<svg xmlns="http://www.w3.org/2000/svg" viewBox="0 0 1000 1000">
<g><path fill="#dbdbdb" d="M175.8,973.6c-41.5,0-81.3-17.2-113-49c-70.4-70.6-70.4-185.4,0-255.9L611.5,86c85.6-85.8,216.7-78.1,312.4,17.8c42.9,43,67,104.9,66.1,170c-0.9,64.4-26.1,126.1-69.1,169.1L506.2,884.3c-11.6,12.4-30.9,12.9-43.2,1.3c-12.3-11.6-12.9-31-1.3-43.3L877,400.2c32.5-32.5,51.1-78.7,51.8-127.3c0.7-48.6-16.9-94.5-48.2-125.8C822,88.3,726.4,57.4,655.3,128.7L106.7,711.3c-47.2,47.3-47.2,123.3-0.6,169.9c21.8,21.9,47.7,32.5,75.3,30.8c27.3-1.7,55.4-15.7,79-39.4L697,408c15.8-15.9,47.6-54.7,15.2-87.2c-18.3-18.4-31.2-17.2-35.4-16.9c-12.1,1.1-26.2,9.4-40.9,24.2L307.4,677.6c-11.6,12.4-31,12.9-43.2,1.3c-12.3-11.6-12.9-31-1.3-43.3L592,285.5c25.9-26,52.3-40.1,79.3-42.5c21-1.9,52.3,2.6,84.2,34.6c47.3,47.4,41.4,117-14.6,173.1L304.3,915.4c-34.9,35-76.9,55.3-119.2,57.9C182,973.5,178.9,973.6,175.8,973.6"/></g>
</svg>