
<svg version="1.1" xmlns="http://www.w3.org/2000/svg" xmlns:xlink="http://www.w3.org/1999/xlink" x="0px" y="0px" viewBox="0 0 1000 1000" enable-background="new 0 0 1000 1000" xml:space="preserve">
<g><path fill="#dbdbdb" d="M178.4,836.9h91.9c8.5,0,15.3-6.8,15.3-15.3V745c0-8.5-6.8-15.3-15.3-15.3h-91.9c-8.5,0-15.3,6.8-15.3,15.3v76.6C163.1,830,170,836.9,178.4,836.9z M193.8,760.3H255v45.9h-61.3V760.3z"/><path fill="#dbdbdb" d="M362.2,836.9h91.9c8.5,0,15.3-6.8,15.3-15.3V745c0-8.5-6.8-15.3-15.3-15.3h-91.9c-8.5,0-15.3,6.8-15.3,15.3v76.6C346.9,830,353.7,836.9,362.2,836.9z M377.5,760.3h61.3v45.9h-61.3V760.3z"/><path fill="#dbdbdb" d="M545.9,836.9h91.9c8.5,0,15.3-6.8,15.3-15.3V745c0-8.5-6.8-15.3-15.3-15.3h-91.9c-8.5,0-15.3,6.8-15.3,15.3v76.6C530.6,830,537.5,836.9,545.9,836.9z M561.3,760.3h61.3v45.9h-61.3V760.3z"/><path fill="#dbdbdb" d="M178.4,668.4h91.9c8.5,0,15.3-6.8,15.3-15.3v-76.6c0-8.5-6.8-15.3-15.3-15.3h-91.9c-8.5,0-15.3,6.8-15.3,15.3v76.6C163.1,661.6,170,668.4,178.4,668.4z M193.8,591.9H255v45.9h-61.3V591.9z"/><path fill="#dbdbdb" d="M362.2,668.4h91.9c8.5,0,15.3-6.8,15.3-15.3v-76.6c0-8.5-6.8-15.3-15.3-15.3h-91.9c-8.5,0-15.3,6.8-15.3,15.3v76.6C346.9,661.6,353.7,668.4,362.2,668.4z M377.5,591.9h61.3v45.9h-61.3V591.9z"/><path fill="#dbdbdb" d="M545.9,668.4h91.9c8.5,0,15.3-6.8,15.3-15.3v-76.6c0-8.5-6.8-15.3-15.3-15.3h-91.9c-8.5,0-15.3,6.8-15.3,15.3v76.6C530.6,661.6,537.5,668.4,545.9,668.4z M561.3,591.9h61.3v45.9h-61.3V591.9z"/><path fill="#dbdbdb" d="M729.7,668.4h91.9c8.5,0,15.3-6.8,15.3-15.3v-76.6c0-8.5-6.8-15.3-15.3-15.3h-91.9c-8.5,0-15.3,6.8-15.3,15.3v76.6C714.4,661.6,721.2,668.4,729.7,668.4z M745,591.9h61.3v45.9H745V591.9z"/><path fill="#dbdbdb" d="M178.4,500h91.9c8.5,0,15.3-6.8,15.3-15.3v-76.6c0-8.5-6.8-15.3-15.3-15.3h-91.9c-8.5,0-15.3,6.8-15.3,15.3v76.6C163.1,493.2,170,500,178.4,500z M193.8,423.4H255v45.9h-61.3V423.4z"/><path fill="#dbdbdb" d="M362.2,500h91.9c8.5,0,15.3-6.8,15.3-15.3v-76.6c0-8.5-6.8-15.3-15.3-15.3h-91.9c-8.5,0-15.3,6.8-15.3,15.3v76.6C346.9,493.2,353.7,500,362.2,500z M377.5,423.4h61.3v45.9h-61.3V423.4z"/><path fill="#dbdbdb" d="M545.9,500h91.9c8.5,0,15.3-6.8,15.3-15.3v-76.6c0-8.5-6.8-15.3-15.3-15.3h-91.9c-8.5,0-15.3,6.8-15.3,15.3v76.6C530.6,493.2,537.5,500,545.9,500z M561.3,423.4h61.3v45.9h-61.3V423.4z"/><path fill="#dbdbdb" d="M729.7,500h91.9c8.5,0,15.3-6.8,15.3-15.3v-76.6c0-8.5-6.8-15.3-15.3-15.3h-91.9c-8.5,0-15.3,6.8-15.3,15.3v76.6C714.4,493.2,721.2,500,729.7,500z M745,423.4h61.3v45.9H745V423.4z"/><path fill="#dbdbdb" d="M928.8,71.3H821.6V55.9c0-25.4-20.6-45.9-45.9-45.9s-45.9,20.6-45.9,45.9v15.3H270.3V55.9c0-25.4-20.6-45.9-45.9-45.9s-45.9,20.6-45.9,45.9v15.3H71.3C37.4,71.3,10,98.6,10,132.5v796.3c0,33.9,27.4,61.3,61.3,61.3h857.5c33.9,0,61.3-27.4,61.3-61.3V132.5C990,98.6,962.6,71.3,928.8,71.3z M760.3,55.9c0-8.5,6.8-15.3,15.3-15.3s15.3,6.8,15.3,15.3v45.9v61.3c0,8.5-6.8,15.3-15.3,15.3s-15.3-6.8-15.3-15.3v-61.3V55.9z M209.1,55.9c0-8.5,6.8-15.3,15.3-15.3s15.3,6.8,15.3,15.3v45.9v61.3c0,8.5-6.8,15.3-15.3,15.3s-15.3-6.8-15.3-15.3v-61.3V55.9z M959.4,928.8c0,16.9-13.7,30.6-30.6,30.6H71.3c-16.9,0-30.6-13.7-30.6-30.6V270.3h918.8V928.8z M959.4,239.7H40.6V132.5c0-16.9,13.7-30.6,30.6-30.6h107.2v61.3c0,25.4,20.6,45.9,45.9,45.9s45.9-20.6,45.9-45.9v-61.3h459.4v61.3c0,25.4,20.6,45.9,45.9,45.9s45.9-20.6,45.9-45.9v-61.3h107.2c16.9,0,30.6,13.7,30.6,30.6V239.7z"/></g>
</svg>