<svg version="1.1" xmlns="http://www.w3.org/2000/svg" xmlns:xlink="http://www.w3.org/1999/xlink" x="0px" y="0px" viewBox="0 0 1000 1000" enable-background="new 0 0 1000 1000" xml:space="preserve">
<g><g transform="translate(0.000000,512.000000) scale(0.100000,-0.100000)"><path fill="#dbdbdb" d="M1134.2,4981.1c-36.4-19.1-279.5-248.8-539.8-511.1C87.2,3959,79.5,3947.5,110.2,3779c11.5-63.2,210.6-269.9,1805.1-1864.4L3708.8,119.1L1915.2-1676.4C320.7-3270.9,121.6-3477.6,110.2-3540.8c-30.6-168.4-23-179.9,484.3-691c260.3-262.2,505.4-492,543.6-513c80.4-40.2,158.9-45.9,239.3-17.2c30.6,11.5,832.7,798.2,1839.5,1805.1l1784,1784l1785.9-1784c1004.9-1006.8,1807-1793.6,1837.6-1805.1c80.4-28.7,158.9-23,239.3,17.2c88.1,45.9,964.8,926.5,1006.9,1010.7c34.5,70.8,38.3,153.1,11.5,229.7c-11.5,30.6-798.2,832.7-1805.1,1837.6L6293,119.1L8077,1905C9083.8,2910,9870.6,3712,9882,3742.7c28.7,80.4,23,158.9-17.2,239.3c-21,38.3-250.8,283.3-513,543.6c-511.1,507.3-522.6,514.9-689.1,484.3c-65.1-11.5-271.8-210.6-1868.2-1805.1L5000.9,1411.2L3215,3195.2C2210,4202.1,1408,4988.8,1377.3,5000.3C1296.9,5029,1210.8,5023.3,1134.2,4981.1z"/></g></g>
</svg>